# xmcd
#
# Track frame offsets:
#	150
#	13865
#	27674
#	44055
#	62243
#	78137
#	99230
#	113944
#	131730
#	146732
#	164293
#	181926
#
# Disc length: 2652 seconds
#
# Revision: 1
# Processed by: cddbd v1.5.2PL0 Copyright (c) Steve Scherf et al.
# Submitted via: audiograbber 1.83.01
#
DISCID=a70a5a0c
DTITLE=Blake Shelton - Startin' Fires
DYEAR=2008
DGENRE=Country
TTITLE0=Green
TTITLE1=Good At Startin' Fires
TTITLE2=She Wouldn't Be Gone
TTITLE3=I'll Just Hold On
TTITLE4=100 Miles
TTITLE5=Never Lovin' You
TTITLE6=Country Strong
TTITLE7=Home Sweet Home
TTITLE8=This Is Gonna Take All Night
TTITLE9=Here I Am
TTITLE10=I Don't Care
TTITLE11=Bare Skin Rug (w. Miranada Lambert)
EXTD=
EXTT0=
EXTT1=
EXTT2=
EXTT3=
EXTT4=
EXTT5=
EXTT6=
EXTT7=
EXTT8=
EXTT9=
EXTT10=
EXTT11=
PLAYORDER=
